<?xml version="1.0" encoding="UTF-8"?>
<svg width="80px" height="80px" viewBox="0 0 80 80" version="1.1" xmlns="http://www.w3.org/2000/svg" xmlns:xlink="http://www.w3.org/1999/xlink">
    <!-- Generator: Sketch 60 (88103) - https://sketch.com -->
    <title>BCsm</title>
    <desc>Created with Sketch.</desc>
    <g id="Page-1" stroke="none" stroke-width="1" fill="none" fill-rule="evenodd">
        <g id="BCsm">
            <rect id="Rectangle" fill="#FFBB4C" x="0" y="0" width="80" height="80" rx="4"></rect>
            <path d="M18.568,69.288 C20.584,69.288 22.008,68.52 22.84,66.984 C23.128,66.44 23.336,65.768 23.464,64.968 C23.592,64.168 23.656,63.096 23.656,61.752 L23.656,61.752 L23.656,52.488 C23.656,50.728 23.608,49.432 23.512,48.6 C23.416,47.768 23.208,47.096 22.888,46.584 C22.472,45.944 21.936,45.416 21.28,45 C20.624,44.584 19.704,44.376 18.52,44.376 C17.56,44.376 16.704,44.592 15.952,45.024 C15.2,45.456 14.552,46.072 14.008,46.872 L14.008,46.872 L13.912,46.872 L13.912,34.824 L9.016,34.824 L9.016,69 L13.912,69 L13.912,66.792 C14.52,67.496 15.144,68.088 15.784,68.568 C16.424,69.048 17.352,69.288 18.568,69.288 Z M16.36,64.392 C15.624,64.392 15.032,64.112 14.584,63.552 C14.136,62.992 13.912,62.264 13.912,61.368 L13.912,61.368 L13.912,51.912 C13.912,51.144 14.144,50.512 14.608,50.016 C15.072,49.52 15.656,49.272 16.36,49.272 C17.288,49.272 17.92,49.56 18.256,50.136 C18.592,50.712 18.76,51.384 18.76,52.152 L18.76,52.152 L18.76,61.08 C18.76,62.072 18.568,62.872 18.184,63.48 C17.8,64.088 17.192,64.392 16.36,64.392 Z M34.972,69.288 C36.092,69.288 37.1,69.096 37.996,68.712 C38.892,68.328 39.66,67.8 40.3,67.128 C41.612,65.816 42.268,64.088 42.268,61.944 L42.268,61.944 L37.372,61.944 C37.308,62.488 37.124,63.032 36.82,63.576 C36.516,64.12 35.9,64.392 34.972,64.392 C34.236,64.392 33.652,64.184 33.22,63.768 C32.788,63.352 32.572,62.76 32.572,61.992 L32.572,61.992 L32.572,52.056 C32.572,51.128 32.788,50.432 33.22,49.968 C33.652,49.504 34.236,49.272 34.972,49.272 C35.708,49.272 36.292,49.504 36.724,49.968 C37.156,50.432 37.372,51.16 37.372,52.152 L37.372,52.152 L42.268,52.152 C42.268,49.848 41.628,47.976 40.348,46.536 C39.708,45.864 38.932,45.336 38.02,44.952 C37.108,44.568 36.092,44.376 34.972,44.376 C33.436,44.376 32.132,44.696 31.06,45.336 C29.988,45.976 29.164,46.824 28.588,47.88 C28.236,48.52 27.996,49.256 27.868,50.088 C27.74,50.92 27.676,51.832 27.676,52.824 L27.676,52.824 L27.676,60.84 C27.676,61.832 27.74,62.744 27.868,63.576 C27.996,64.408 28.236,65.144 28.588,65.784 C29.164,66.84 29.988,67.688 31.06,68.328 C32.132,68.968 33.436,69.288 34.972,69.288 Z M49.744,69 L49.744,64.104 L44.848,64.104 L44.848,69 L49.744,69 Z" id="bc." fill="#7D4E00" fill-rule="nonzero"></path>
        </g>
    </g>
</svg>